# xmcd
#
# Track frame offsets:
#	150
#	9874
#	29619
#	54605
#	84919
#	104635
#	125098
#	142705
#	186946
#	190546
#	217105
#	236127
#
# Disc length: 3460 seconds
#
# Revision: 1
# Processed by: cddbd v1.5.2PL0 Copyright (c) Steve Scherf et al.
# Submitted via: EasyCDDAExtractor 15.3.0.1
#
DISCID=a40d820c
DTITLE=Yuri - Vive La Historia (Edicion Especial) - CD 1
DYEAR=2007
DGENRE=Latin
TTITLE0=Intro Hola
TTITLE1=Hola
TTITLE2=Todo Mi Corazon
TTITLE3=Hombres Al Borde De Un Ataque De Celos
TTITLE4=Amiga Mia
TTITLE5=Detras De Mi Ventana
TTITLE6=Que Te Pasa
TTITLE7=Medley Baladas 1 (No Puedo Mas, Poligamia, Yo Te Pido Amor, Es Ella Ma
TTITLE7=s Que Yo)
TTITLE8=Intro Sabes Lo Que Pasa
TTITLE9=Sabes Lo Que Pasa
TTITLE10=Y Llegaste Tu
TTITLE11=Cuando Baja La Marea (Aire)
EXTD=
EXTT0=
EXTT1=
EXTT2=
EXTT3=
EXTT4=
EXTT5=
EXTT6=
EXTT7=
EXTT8=
EXTT9=
EXTT10=
EXTT11=
PLAYORDER=
